<svg xmlns="http://www.w3.org/2000/svg" xmlns:xlink="http://www.w3.org/1999/xlink" contentStyleType="text/css" data-diagram-type="DESCRIPTION" height="856px" preserveAspectRatio="none" style="width:1545px;height:856px;background:#FFFFFF;" version="1.1" viewBox="0 0 1545 856" width="1545px" zoomAndPan="magnify"><title>Proxmox Boot Architecture - Layered Startup</title><defs/><g><g class="title" data-source-line="8"><text fill="#000000" font-family="Arial" font-size="14" font-weight="bold" lengthAdjust="spacing" textLength="357.3965" x="586.8018" y="22.9951">Proxmox Boot Architecture - Layered Startup</text></g><!--cluster L1--><g class="cluster" data-entity="L1" data-source-line="12" data-uid="ent0003" id="cluster_L1"><rect fill="none" height="259.19" rx="2.5" ry="2.5" style="stroke:#333333;stroke-width:1;" width="492" x="539" y="129.8869"/><text fill="#000000" font-family="Arial" font-size="14" font-weight="bold" lengthAdjust="spacing" textLength="157.9922" x="706.0039" y="144.882">&#129351; Capa 1: Infra Base</text></g><!--cluster L2--><g class="cluster" data-entity="L2" data-source-line="18" data-uid="ent0007" id="cluster_L2"><rect fill="none" height="299.19" rx="2.5" ry="2.5" style="stroke:#333333;stroke-width:1;" width="492" x="7" y="259.4769"/><text fill="#000000" font-family="Arial" font-size="14" font-weight="bold" lengthAdjust="spacing" textLength="190.1758" x="157.9121" y="274.472">&#129352; Capa 2: Servicios Core</text></g><!--cluster L3--><g class="cluster" data-entity="L3" data-source-line="24" data-uid="ent0011" id="cluster_L3"><rect fill="none" height="299.19" rx="2.5" ry="2.5" style="stroke:#333333;stroke-width:1;" width="430" x="553" y="429.0769"/><text fill="#000000" font-family="Arial" font-size="14" font-weight="bold" lengthAdjust="spacing" textLength="166.585" x="684.7075" y="444.072">&#129353; Capa 3: Apps / Web</text></g><!--cluster L4--><g class="cluster" data-entity="L4" data-source-line="30" data-uid="ent0015" id="cluster_L4"><rect fill="none" height="252.19" rx="2.5" ry="2.5" style="stroke:#333333;stroke-width:1;" width="516" x="1023" y="598.6669"/><text fill="#000000" font-family="Arial" font-size="14" font-weight="bold" lengthAdjust="spacing" textLength="200.5459" x="1180.7271" y="613.662">&#128998; Capa 4: Usuario / Media</text></g><!--entity B1--><g class="entity" data-entity="B1" data-source-line="13" data-uid="ent0004" id="entity_B1"><rect fill="#F1F1F1" height="62.5938" rx="2.5" ry="2.5" style="stroke:#181818;stroke-width:0.5;" width="172.0771" x="834.96" y="172.8869"/><rect fill="#F1F1F1" height="10" style="stroke:#181818;stroke-width:0.5;" width="15" x="987.0371" y="177.8869"/><rect fill="#F1F1F1" height="2" style="stroke:#181818;stroke-width:0.5;" width="4" x="985.0371" y="179.8869"/><rect fill="#F1F1F1" height="2" style="stroke:#181818;stroke-width:0.5;" width="4" x="985.0371" y="183.8869"/><text fill="#000000" font-family="Arial" font-size="14" lengthAdjust="spacing" textLength="122.8281" x="849.96" y="205.882">101 - Ommada21</text><text fill="#000000" font-family="Arial" font-size="14" lengthAdjust="spacing" textLength="132.0771" x="849.96" y="222.1789">Network Controller</text></g><!--entity B2--><g class="entity" data-entity="B2" data-source-line="14" data-uid="ent0005" id="entity_B2"><rect fill="#F1F1F1" height="62.5938" rx="2.5" ry="2.5" style="stroke:#181818;stroke-width:0.5;" width="217.126" x="582.44" y="172.8869"/><rect fill="#F1F1F1" height="10" style="stroke:#181818;stroke-width:0.5;" width="15" x="779.566" y="177.8869"/><rect fill="#F1F1F1" height="2" style="stroke:#181818;stroke-width:0.5;" width="4" x="777.566" y="179.8869"/><rect fill="#F1F1F1" height="2" style="stroke:#181818;stroke-width:0.5;" width="4" x="777.566" y="183.8869"/><text fill="#000000" font-family="Arial" font-size="14" lengthAdjust="spacing" textLength="177.126" x="597.44" y="205.882">102 - twingate-connector</text><text fill="#000000" font-family="Arial" font-size="14" lengthAdjust="spacing" textLength="125.5625" x="597.44" y="222.1789">Zero Trust Access</text></g><!--entity B3--><g class="entity" data-entity="B3" data-source-line="15" data-uid="ent0006" id="entity_B3"><rect fill="#F1F1F1" height="62.5938" rx="2.5" ry="2.5" style="stroke:#181818;stroke-width:0.5;" width="173.3555" x="707.32" y="302.4769"/><rect fill="#F1F1F1" height="10" style="stroke:#181818;stroke-width:0.5;" width="15" x="860.6755" y="307.4769"/><rect fill="#F1F1F1" height="2" style="stroke:#181818;stroke-width:0.5;" width="4" x="858.6755" y="309.4769"/><rect fill="#F1F1F1" height="2" style="stroke:#181818;stroke-width:0.5;" width="4" x="858.6755" y="313.4769"/><text fill="#000000" font-family="Arial" font-size="14" lengthAdjust="spacing" textLength="133.3555" x="722.32" y="335.472">120 - Monitoring30</text><text fill="#000000" font-family="Arial" font-size="14" lengthAdjust="spacing" textLength="74.8672" x="722.32" y="351.7689">Monitoring</text></g><!--entity C1--><g class="entity" data-entity="C1" data-source-line="19" data-uid="ent0008" id="entity_C1"><rect fill="#F1F1F1" height="62.5938" rx="2.5" ry="2.5" style="stroke:#181818;stroke-width:0.5;" width="240.6211" x="30.69" y="302.4769"/><rect fill="#F1F1F1" height="10" style="stroke:#181818;stroke-width:0.5;" width="15" x="251.3111" y="307.4769"/><rect fill="#F1F1F1" height="2" style="stroke:#181818;stroke-width:0.5;" width="4" x="249.3111" y="309.4769"/><rect fill="#F1F1F1" height="2" style="stroke:#181818;stroke-width:0.5;" width="4" x="249.3111" y="313.4769"/><text fill="#000000" font-family="Arial" font-size="14" lengthAdjust="spacing" textLength="200.6211" x="45.69" y="335.472">159 - dbEmpleosdelatlantico</text><text fill="#000000" font-family="Arial" font-size="14" lengthAdjust="spacing" textLength="66.8008" x="45.69" y="351.7689">Database</text></g><!--entity C2--><g class="entity" data-entity="C2" data-source-line="20" data-uid="ent0009" id="entity_C2"><rect fill="#F1F1F1" height="62.5938" rx="2.5" ry="2.5" style="stroke:#181818;stroke-width:0.5;" width="149.6963" x="306.15" y="302.4769"/><rect fill="#F1F1F1" height="10" style="stroke:#181818;stroke-width:0.5;" width="15" x="435.8463" y="307.4769"/><rect fill="#F1F1F1" height="2" style="stroke:#181818;stroke-width:0.5;" width="4" x="433.8463" y="309.4769"/><rect fill="#F1F1F1" height="2" style="stroke:#181818;stroke-width:0.5;" width="4" x="433.8463" y="313.4769"/><text fill="#000000" font-family="Arial" font-size="14" lengthAdjust="spacing" textLength="93.3857" x="321.15" y="335.472">155 - nodebb</text><text fill="#000000" font-family="Arial" font-size="14" lengthAdjust="spacing" textLength="109.6963" x="321.15" y="351.7689">Forum Backend</text></g><!--entity C3--><g class="entity" data-entity="C3" data-source-line="21" data-uid="ent0010" id="entity_C3"><rect fill="#F1F1F1" height="62.5938" rx="2.5" ry="2.5" style="stroke:#181818;stroke-width:0.5;" width="157.6123" x="72.19" y="472.0769"/><rect fill="#F1F1F1" height="10" style="stroke:#181818;stroke-width:0.5;" width="15" x="209.8023" y="477.0769"/><rect fill="#F1F1F1" height="2" style="stroke:#181818;stroke-width:0.5;" width="4" x="207.8023" y="479.0769"/><rect fill="#F1F1F1" height="2" style="stroke:#181818;stroke-width:0.5;" width="4" x="207.8023" y="483.0769"/><text fill="#000000" font-family="Arial" font-size="14" lengthAdjust="spacing" textLength="117.6123" x="87.19" y="505.072">124 - devops-lab</text><text fill="#000000" font-family="Arial" font-size="14" lengthAdjust="spacing" textLength="84.916" x="87.19" y="521.3689">Dev / CI Lab</text></g><!--entity D1--><g class="entity" data-entity="D1" data-source-line="25" data-uid="ent0012" id="entity_D1"><rect fill="#F1F1F1" height="62.5938" rx="2.5" ry="2.5" style="stroke:#181818;stroke-width:0.5;" width="153.8457" x="577.08" y="472.0769"/><rect fill="#F1F1F1" height="10" style="stroke:#181818;stroke-width:0.5;" width="15" x="710.9257" y="477.0769"/><rect fill="#F1F1F1" height="2" style="stroke:#181818;stroke-width:0.5;" width="4" x="708.9257" y="479.0769"/><rect fill="#F1F1F1" height="2" style="stroke:#181818;stroke-width:0.5;" width="4" x="708.9257" y="483.0769"/><text fill="#000000" font-family="Arial" font-size="14" lengthAdjust="spacing" textLength="113.8457" x="592.08" y="505.072">122 - web-lab22</text><text fill="#000000" font-family="Arial" font-size="14" lengthAdjust="spacing" textLength="94.8281" x="592.08" y="521.3689">Web Services</text></g><!--entity D2--><g class="entity" data-entity="D2" data-source-line="26" data-uid="ent0013" id="entity_D2"><rect fill="#F1F1F1" height="62.5938" rx="2.5" ry="2.5" style="stroke:#181818;stroke-width:0.5;" width="173.7246" x="766.14" y="472.0769"/><rect fill="#F1F1F1" height="10" style="stroke:#181818;stroke-width:0.5;" width="15" x="919.8646" y="477.0769"/><rect fill="#F1F1F1" height="2" style="stroke:#181818;stroke-width:0.5;" width="4" x="917.8646" y="479.0769"/><rect fill="#F1F1F1" height="2" style="stroke:#181818;stroke-width:0.5;" width="4" x="917.8646" y="483.0769"/><text fill="#000000" font-family="Arial" font-size="14" lengthAdjust="spacing" textLength="133.7246" x="781.14" y="505.072">243 - ollamaServer</text><text fill="#000000" font-family="Arial" font-size="14" lengthAdjust="spacing" textLength="55.002" x="781.14" y="521.3689">AI / LLM</text></g><!--entity D3--><g class="entity" data-entity="D3" data-source-line="27" data-uid="ent0014" id="entity_D3"><rect fill="#F1F1F1" height="62.5938" rx="2.5" ry="2.5" style="stroke:#181818;stroke-width:0.5;" width="170.71" x="576.65" y="641.6669"/><rect fill="#F1F1F1" height="10" style="stroke:#181818;stroke-width:0.5;" width="15" x="727.36" y="646.6669"/><rect fill="#F1F1F1" height="2" style="stroke:#181818;stroke-width:0.5;" width="4" x="725.36" y="648.6669"/><rect fill="#F1F1F1" height="2" style="stroke:#181818;stroke-width:0.5;" width="4" x="725.36" y="652.6669"/><text fill="#000000" font-family="Arial" font-size="14" lengthAdjust="spacing" textLength="130.71" x="591.65" y="674.662">289 - ridemotohub</text><text fill="#000000" font-family="Arial" font-size="14" lengthAdjust="spacing" textLength="91.0889" x="591.65" y="690.9589">App Platform</text></g><!--entity E1--><g class="entity" data-entity="E1" data-source-line="31" data-uid="ent0016" id="entity_E1"><rect fill="#F1F1F1" height="62.5938" rx="2.5" ry="2.5" style="stroke:#181818;stroke-width:0.5;" width="203.5771" x="1047.21" y="641.6669"/><rect fill="#F1F1F1" height="10" style="stroke:#181818;stroke-width:0.5;" width="15" x="1230.7871" y="646.6669"/><rect fill="#F1F1F1" height="2" style="stroke:#181818;stroke-width:0.5;" width="4" x="1228.7871" y="648.6669"/><rect fill="#F1F1F1" height="2" style="stroke:#181818;stroke-width:0.5;" width="4" x="1228.7871" y="652.6669"/><text fill="#000000" font-family="Arial" font-size="14" lengthAdjust="spacing" textLength="163.5771" x="1062.21" y="674.662">100 - CasaOSMedia105</text><text fill="#000000" font-family="Arial" font-size="14" lengthAdjust="spacing" textLength="92.4082" x="1062.21" y="690.9589">Media Server</text></g><!--entity E2--><g class="entity" data-entity="E2" data-source-line="32" data-uid="ent0017" id="entity_E2"><rect fill="#F1F1F1" height="62.5938" rx="2.5" ry="2.5" style="stroke:#181818;stroke-width:0.5;" width="209.8662" x="1286.07" y="641.6669"/><rect fill="#F1F1F1" height="10" style="stroke:#181818;stroke-width:0.5;" width="15" x="1475.9362" y="646.6669"/><rect fill="#F1F1F1" height="2" style="stroke:#181818;stroke-width:0.5;" width="4" x="1473.9362" y="648.6669"/><rect fill="#F1F1F1" height="2" style="stroke:#181818;stroke-width:0.5;" width="4" x="1473.9362" y="652.6669"/><text fill="#000000" font-family="Arial" font-size="14" lengthAdjust="spacing" textLength="169.8662" x="1301.07" y="674.662">200 - homeassistant119</text><text fill="#000000" font-family="Arial" font-size="14" lengthAdjust="spacing" textLength="127.333" x="1301.07" y="690.9589">Home Automation</text></g><!--entity E3--><g class="entity" data-entity="E3" data-source-line="33" data-uid="ent0018" id="entity_E3"><rect fill="#F1F1F1" height="62.5938" rx="2.5" ry="2.5" style="stroke:#181818;stroke-width:0.5;" width="169.8281" x="1064.09" y="764.2669"/><rect fill="#F1F1F1" height="10" style="stroke:#181818;stroke-width:0.5;" width="15" x="1213.9181" y="769.2669"/><rect fill="#F1F1F1" height="2" style="stroke:#181818;stroke-width:0.5;" width="4" x="1211.9181" y="771.2669"/><rect fill="#F1F1F1" height="2" style="stroke:#181818;stroke-width:0.5;" width="4" x="1211.9181" y="775.2669"/><text fill="#000000" font-family="Arial" font-size="14" lengthAdjust="spacing" textLength="88.2656" x="1079.09" y="797.262">104 - NVR69</text><text fill="#000000" font-family="Arial" font-size="14" lengthAdjust="spacing" textLength="129.8281" x="1079.09" y="813.5589">Video Surveillance</text></g><!--entity HOST--><g class="entity" data-entity="HOST" data-source-line="10" data-uid="ent0002" id="entity_HOST"><polygon fill="#F1F1F1" points="471.64,53.2969,481.64,43.2969,622.3548,43.2969,622.3548,95.8906,612.3548,105.8906,471.64,105.8906,471.64,53.2969" style="stroke:#181818;stroke-width:0.5;"/><line style="stroke:#181818;stroke-width:0.5;" x1="612.3548" x2="622.3548" y1="53.2969" y2="43.2969"/><line style="stroke:#181818;stroke-width:0.5;" x1="471.64" x2="612.3548" y1="53.2969" y2="53.2969"/><line style="stroke:#181818;stroke-width:0.5;" x1="612.3548" x2="612.3548" y1="53.2969" y2="105.8906"/><text fill="#000000" font-family="Arial" font-size="14" lengthAdjust="spacing" textLength="110.7148" x="486.64" y="76.292">&#128421;&#65039; Proxmox Host</text><text fill="#000000" font-family="Arial" font-size="14" lengthAdjust="spacing" textLength="60.4023" x="486.64" y="92.5889">nosotros</text></g><!--link HOST to L1--><g class="link" data-entity-1="HOST" data-entity-2="L1" data-link-type="dependency" data-source-line="36" data-uid="lnk19" id="link_HOST_L1"><path d="M547,106.1569 C547,110.8006 547,115.7706 547,120.9163 C547,123.4891 547,126.1058 547,128.7476 C547,129.0779 547,123.4085 547,123.7395" fill="none" id="HOST-to-L1" style="stroke:#555555;stroke-width:1;"/><polygon fill="#555555" points="547,129.7395,551,120.7395,547,124.7395,543,120.7395,547,129.7395" style="stroke:#555555;stroke-width:1;"/></g><!--link L1 to L2--><g class="link" data-entity-1="L1" data-entity-2="L2" data-link-type="dependency" data-source-line="37" data-uid="lnk20" id="link_L1_L2"><path d="M538.9357,223.5572 C538.8586,223.7329 538.7811,223.9095 538.7032,224.087 C538.3915,224.7972 538.0731,225.5225 537.7486,226.2619 C532.5559,238.0925 525.7719,253.5494 518.9888,269.0044 C512.2056,284.4594 505.4234,299.9125 500.2345,311.7356 C499.9102,312.4746 499.5921,313.1993 499.2807,313.909 C499.2028,314.0865 501.5366,308.7688 501.4596,308.9443" fill="none" id="L1-to-L2" style="stroke:#555555;stroke-width:1;"/><polygon fill="#555555" points="499.0483,314.4385,506.328,307.8047,501.0577,309.86,499.0024,304.5897,499.0483,314.4385" style="stroke:#555555;stroke-width:1;"/></g><!--link L2 to L3--><g class="link" data-entity-1="L2" data-entity-2="L3" data-link-type="dependency" data-source-line="38" data-uid="lnk21" id="link_L2_L3"><path d="M499.0021,346.4273 C499.1333,346.6061 499.2659,346.7865 499.4001,346.9684 C499.9367,347.696 500.4968,348.4474 501.0799,349.2203 C502.2459,350.7661 503.5037,352.3975 504.8479,354.0949 C507.5363,357.4898 510.5706,361.1484 513.91,364.9131 C527.2675,379.9719 545.505,396.7269 566,405.0769 C586.07,413.2469 939.3,399.2669 956,413.0769 C959.8475,416.2581 963.0358,420.0084 965.6688,424.1396 C966.3271,425.1724 966.9506,426.229 967.5411,427.3065 C967.8364,427.8452 965.405,423.0403 965.6839,423.5891" fill="none" id="L2-to-L3" style="stroke:#555555;stroke-width:1;"/><polygon fill="#555555" points="968.4022,428.9379,967.8906,419.1024,966.1369,424.4805,960.7588,422.7269,968.4022,428.9379" style="stroke:#555555;stroke-width:1;"/></g><!--link L3 to L4--><g class="link" data-entity-1="L3" data-entity-2="L4" data-link-type="dependency" data-source-line="39" data-uid="lnk22" id="link_L3_L4"><path d="M983.4966,504.3355 C983.7593,504.3352 984.0277,504.335 984.3018,504.3348 C985.3983,504.3342 986.586,504.3343 987.8621,504.3357 C990.4142,504.3385 993.3194,504.346 996.5536,504.3611 C1009.4905,504.4212 1027.6914,504.6012 1049.6109,505.0742 C1093.45,506.0203 1152.1638,508.1387 1213.39,512.8156 C1335.8425,522.1694 1468.345,541.7569 1512,582.6669 C1515.6425,586.0819 1518.6763,590.0084 1521.1959,594.269 C1521.8258,595.3341 1522.4236,596.4201 1522.9908,597.5242 C1523.1325,597.8002 1520.6069,592.702 1520.7448,592.9802" fill="none" id="L3-to-L4" style="stroke:#555555;stroke-width:1;"/><polygon fill="#555555" points="1523.4104,598.3556,1522.9957,588.5155,1521.1891,593.8761,1515.8285,592.0696,1523.4104,598.3556" style="stroke:#555555;stroke-width:1;"/></g><!--SRC=[PPFFRjD04CRlVefHEKV4Te9e3aX9sggLqZyYfKXW3cDxagngxrYxwwOLuWoSk77jgJm3RmMFm7ZNb01xMck-cVdDDsjxhNI31ckm6onvg_GQLbXPYknZfC7Y6jUqT7SLWQ72eLvNkuAILjXMxeYrEyEQO6eKLZlngJ6ydNF51fwC_Ta9pgJwsd2horvnvC-EuYBqdx4foVIYr9yeSie9r8NXsvflOSRif5knKKumMqCmW0NUaQ4IbWwDQvieqbmIxFsy__hmu_kNnzHZjYxJcYqxmtOFqCBn-V8oYlhfkuo7Zp371Y6Um8bU6HHsIrwwYE5z1F0s7iRIyhokiSGaplGPkIsRQvYBDOQhYioxJZwBWpWHiUiyHqU3WhKMQZQPVaE6uTAqLgOf2h8sP2K-AnbArYbh9L99JOUP_lCLX6dquM_mJm4ycS2Ip8qg55jXCZryqiEFzwLocH_MJKLiIwhGLQYTAZZJ1-Wmbt5zWtdW7uz5tzcPvva-OjE6RP8kWwhd7NLLwOOREwXGb0Tq0qzXVYAhoOFmFzxFWJUTmBHfhAXVKnvOqvurwRpRKjwLJ99CYw2VZO9R1vun6QMY4-UnnYvCukxqH0ek5gT1vY6JvzteHfLKi-DDAvJI62x4WHMREYZ_fRp_5YX74tXbMpIAfUufbGe3wkZtc-WMDaUBvqiVZOTZMLbtWu3aony6NY_US4rehRBogxauti_qCNV_LUkuHgTOXupWxx3pz-pgvJEHNSa43CjMgYgPMHTXNuSUlNlFC1YyaDSQoOFrjoIIxVjR6ect_ZRw1G00]--></g></svg>